<?xml version="1.0" standalone="no"?>
<!DOCTYPE svg PUBLIC "-//W3C//DTD SVG 20010904//EN"
 "http://www.w3.org/TR/2001/REC-SVG-20010904/DTD/svg10.dtd">
<svg version="1.0" xmlns="http://www.w3.org/2000/svg"
 width="1531.000000pt" height="495.000000pt" viewBox="0 0 1531.000000 495.000000"
 preserveAspectRatio="xMidYMid meet">

<g transform="translate(0.000000,495.000000) scale(0.100000,-0.100000)"
fill="#000000" stroke="none">
<path d="M3690 4916 c-347 -73 -667 -328 -916 -727 -113 -183 -228 -435 -295
-646 l-23 -73 -277 0 -278 0 -28 -24 c-27 -23 -28 -28 -28 -110 0 -127 -14
-120 276 -124 219 -3 239 -5 235 -20 -3 -9 -102 -357 -220 -772 -236 -832
-316 -1096 -407 -1350 -171 -480 -293 -657 -539 -784 -92 -48 -199 -82 -224
-73 -13 5 -8 18 29 71 135 192 151 355 49 475 -59 68 -103 86 -214 86 -84 0
-101 -3 -146 -27 -221 -116 -244 -455 -47 -668 97 -106 211 -147 376 -136 237
15 442 86 635 219 106 72 292 260 394 397 340 457 628 1100 1026 2293 l96 287
261 0 c220 0 264 2 283 16 49 34 95 184 66 214 -19 19 -129 28 -361 29 -101 1
-183 3 -183 5 0 13 176 606 207 696 120 354 223 534 338 590 60 29 150 29 211
0 24 -12 44 -26 44 -32 0 -5 -41 -53 -91 -106 -111 -119 -149 -191 -157 -292
-4 -61 -1 -76 22 -125 68 -139 300 -210 445 -136 169 87 256 346 182 541 -47
124 -176 235 -334 286 -68 23 -104 28 -212 30 -83 2 -153 -2 -195 -10z"/>
<path d="M7008 4352 l-328 -55 0 -37 0 -36 82 9 c129 13 198 -22 198 -103 0
-28 -113 -447 -231 -851 l-19 -67 -64 64 c-92 92 -134 109 -271 109 -95 0
-122 -4 -192 -28 -149 -51 -327 -171 -478 -322 -368 -367 -547 -922 -401
-1240 31 -69 115 -159 181 -194 44 -23 62 -26 145 -26 91 0 99 2 180 41 47 23
113 62 147 88 115 87 291 289 421 484 30 45 57 81 59 79 2 -2 -17 -68 -42
-147 -57 -180 -77 -276 -77 -367 0 -84 18 -124 73 -161 29 -20 44 -23 95 -20
122 7 275 115 433 304 110 131 109 129 69 154 l-32 19 -35 -42 c-115 -137
-206 -217 -246 -217 -12 0 -30 9 -40 20 -17 19 -18 27 -7 88 8 47 576 2020
718 2495 3 9 2 17 -3 16 -4 -1 -155 -26 -335 -57z m-557 -1073 c51 -16 103
-60 136 -116 22 -37 28 -62 31 -129 11 -203 -80 -455 -265 -733 -289 -434
-521 -587 -679 -448 -70 61 -101 166 -90 311 21 270 131 542 327 806 158 214
305 319 448 320 29 0 71 -5 92 -11z"/>
<path d="M11355 4156 c-38 -17 -91 -73 -104 -109 -25 -67 -2 -166 50 -214 56
-51 139 -66 207 -38 146 62 166 255 34 346 -42 29 -141 37 -187 15z"/>
<path d="M963 3531 c-299 -48 -542 -245 -593 -482 -7 -33 -11 -95 -8 -150 4
-78 9 -103 33 -149 63 -123 157 -230 362 -412 164 -144 263 -247 303 -314 32
-53 35 -65 34 -134 -1 -181 -86 -282 -260 -310 -38 -6 -92 -9 -120 -5 -104 13
-223 92 -240 161 -4 14 -4 48 0 77 19 151 19 197 1 244 -54 141 -202 198 -341
132 -68 -32 -105 -99 -119 -215 -38 -329 324 -585 795 -560 407 21 682 193
755 471 20 77 20 252 0 328 -30 115 -115 209 -447 495 -249 214 -286 272 -274
422 8 104 51 191 113 230 98 62 227 63 294 3 45 -41 66 -92 103 -253 45 -196
91 -250 213 -250 104 0 204 66 233 156 8 22 11 66 8 110 -12 187 -154 324
-398 384 -94 24 -354 35 -447 21z"/>
<path d="M4545 3378 c-230 -43 -433 -155 -621 -342 -253 -254 -404 -581 -404
-877 0 -123 18 -197 73 -303 71 -137 179 -227 322 -267 75 -21 292 -18 380 5
201 54 406 177 619 373 l67 62 -16 25 c-10 14 -22 26 -27 26 -5 0 -35 -20 -66
-43 -293 -224 -489 -296 -686 -253 -128 29 -235 114 -293 236 -22 45 -28 73
-31 152 -2 54 -1 117 2 142 l7 44 62 6 c470 51 834 196 1035 411 235 251 191
526 -95 600 -64 17 -247 19 -328 3z m188 -102 c50 -20 95 -78 103 -132 29
-193 -181 -448 -474 -574 -125 -54 -209 -76 -444 -115 -22 -3 -28 -1 -28 13 0
29 77 246 110 313 112 224 307 416 492 484 73 28 189 33 241 11z"/>
<path d="M8310 3371 c-376 -80 -715 -375 -896 -779 -68 -152 -96 -272 -97
-422 -2 -143 11 -200 71 -315 46 -88 148 -192 222 -228 133 -65 341 -74 513
-23 169 50 365 166 536 318 117 103 122 111 95 139 l-22 21 -126 -91 c-210
-150 -296 -190 -450 -212 -149 -21 -271 17 -375 116 -101 96 -143 223 -125
380 l9 79 125 18 c422 59 708 166 919 346 191 164 261 399 157 535 -45 60
-114 103 -195 121 -92 21 -253 19 -361 -3z m217 -92 c69 -26 105 -87 105 -173
-1 -146 -113 -315 -290 -435 -140 -94 -322 -164 -515 -196 -50 -8 -104 -17
-120 -20 -32 -5 -32 -4 15 140 84 253 211 439 391 571 69 51 142 91 202 110
50 16 174 18 212 3z"/>
<path d="M9500 3335 c-173 -30 -316 -54 -317 -54 -3 -1 9 -64 12 -69 1 -1 33
2 71 8 94 15 150 6 187 -31 53 -53 47 -78 -217 -963 -97 -324 -176 -592 -176
-597 0 -5 67 -9 148 -9 l148 0 28 118 c35 146 143 446 203 566 130 259 488
737 582 775 67 28 96 7 121 -87 15 -58 57 -85 123 -79 61 5 99 40 137 122 70
153 65 288 -12 335 -74 45 -181 13 -318 -97 -187 -149 -385 -404 -629 -808
-11 -19 -12 -18 -5 4 11 42 264 896 269 909 6 17 -3 16 -355 -43z"/>
<path d="M11100 3335 c-173 -30 -316 -54 -317 -54 -2 -1 -3 -17 -3 -36 0 -40
-5 -39 110 -24 106 14 152 -1 175 -54 22 -54 22 -55 -216 -874 -123 -424 -142
-504 -137 -569 10 -123 127 -183 274 -139 110 33 292 185 416 349 56 75 59 81
41 94 -47 35 -47 35 -113 -49 -143 -181 -255 -243 -289 -161 -10 24 -9 43 9
112 17 69 388 1384 406 1443 7 23 12 24 -356 -38z"/>
<path d="M12771 3375 c-190 -42 -379 -141 -555 -291 -378 -322 -557 -895 -386
-1233 60 -119 155 -199 297 -248 72 -25 90 -27 228 -28 171 0 248 17 390 84
136 65 306 201 416 332 l42 50 -26 26 -26 26 -94 -90 c-202 -192 -353 -260
-568 -251 -91 3 -112 7 -171 35 -168 79 -244 247 -219 490 19 181 58 309 146
483 128 249 302 422 510 505 56 22 91 29 173 33 152 7 224 -26 224 -103 0 -29
-9 -45 -49 -88 -79 -84 -89 -106 -85 -190 3 -39 58 -94 105 -102 65 -13 108 2
158 55 56 57 83 128 82 217 -1 146 -111 260 -283 293 -73 14 -232 11 -309 -5z"/>
<path d="M14540 3375 c-325 -65 -644 -305 -819 -614 -104 -184 -150 -337 -158
-527 -10 -222 39 -367 167 -495 200 -199 520 -224 857 -64 392 185 662 570
705 1005 16 159 -2 277 -61 396 -75 150 -221 266 -378 299 -83 18 -225 18
-313 0z m259 -120 c85 -47 136 -117 161 -224 16 -68 8 -283 -15 -400 -67 -343
-298 -752 -501 -886 -85 -56 -155 -77 -249 -73 -202 8 -315 149 -315 395 -1
506 348 1130 678 1213 20 5 71 8 112 6 61 -2 86 -8 129 -31z"/>
</g>
</svg>
